<?xml version="1.0" ?>
<svg
xmlns:svg="http://www.w3.org/2000/svg"
xmlns="http://www.w3.org/2000/svg"
viewBox="0 0 561 561"
version="1.1">
<style>
path {
    display: none;
}

path:target {
    display: block;
}
</style>
<path id="knowed" fill="#4cda64" d="M280.5,89.25C153,89.25,43.35,168.3,0,280.5c43.35,112.2,153,191.25,280.5,191.25S517.65,392.7,561,280.5 C517.65,168.3,408,89.25,280.5,89.25z M280.5,408C209.1,408,153,351.9,153,280.5c0-71.4,56.1-127.5,127.5-127.5 c71.4,0,127.5,56.1,127.5,127.5C408,351.9,351.9,408,280.5,408z M280.5,204c-43.35,0-76.5,33.15-76.5,76.5 c0,43.35,33.15,76.5,76.5,76.5c43.35,0,76.5-33.15,76.5-76.5C357,237.15,323.85,204,280.5,204z"/>
<path id="ignored" fill="#f00" d="M 13.037109 251.54297 C 8.1987489 260.91685 3.8344376 270.57557 0 280.5 C 19.257904 330.34399 51.60813 373.63563 92.787109 406.37109 L 57.447266 467.58398 L 86.560547 484.39258 L 120.34961 425.86719 C 143.52855 440.38551 168.83031 451.84222 195.67188 459.67383 L 178.10156 525.24805 L 210.57422 533.94922 L 228.43945 467.27539 C 245.36069 470.21347 262.75682 471.75 280.5 471.75 C 298.24318 471.75 315.63931 470.21347 332.56055 467.27539 L 350.42578 533.94922 L 382.89844 525.24805 L 365.32812 459.67383 C 392.16969 451.84222 417.47145 440.38551 440.65039 425.86719 L 474.43945 484.39258 L 503.55273 467.58398 L 468.21289 406.37109 C 509.39187 373.63563 541.7421 330.34399 561 280.5 C 557.16556 270.57557 552.80125 260.9169 547.96289 251.54297 C 498.10124 365.12532 396.72177 442.36133 280.5 442.36133 C 164.27823 442.36133 62.898762 365.12532 13.037109 251.54297 z "/>
</svg>
