<?xml version="1.0"?>
<svg
xmlns:xlink="http://www.w3.org/1999/xlink"
xmlns="http://www.w3.org/2000/svg"
viewBox="0 0 360 360"
width="360"
height="360"
version="1.1">
<defs>
<style>
use {
fill: none;
}
#dark:target,
#device:target,
#light:target {
fill: #404040;
}
#invert-dark:target,
#invert-device:target,
#invert-light:target {
fill: #fff;
}
</style>
<path
d="m 180,30 c -5.55556,0 -10.31641,4.76229 -10.31641,10.31783 v 30.5563 c 0,5.55554 4.76085,10.31783 10.31641,10.31783 5.55556,0 10.31836,-4.76229 10.31836,-10.31783 V 40.31783 C 190.31836,34.76229 185.55556,30 180,30 Z M 80.79492,71.07176 c -2.57936,0 -5.15845,0.99207 -7.14258,2.97619 -3.96825,3.96825 -3.96825,10.31783 0,14.28608 l 21.82422,21.82536 c 3.96825,3.96825 10.31886,3.96825 14.28711,0 3.96826,-3.96824 3.96826,-10.31782 0,-14.28607 L 87.9375,74.04795 c -1.98413,-1.98412 -4.56321,-2.97619 -7.14258,-2.97619 z m 198.41208,0 c -2.5793,0 -5.1584,0.99207 -7.1425,2.97619 l -21.8262,21.82537 c -3.9683,3.96825 -3.9683,10.31783 0,14.28607 3.5714,3.96825 10.3188,3.96825 14.2871,0 l 21.8242,-21.82536 c 3.9683,-3.96825 3.9683,-10.31783 0,-14.28608 -1.9841,-1.98412 -4.5632,-2.97619 -7.1426,-2.97619 z M 180,104.60424 c -20.63492,0 -39.68177,8.3337 -53.17383,22.22257 -13.49207,13.49205 -22.22266,32.53926 -22.22266,53.17415 0,20.6349 8.73059,39.68211 22.22266,53.17415 13.49206,13.49205 32.53891,22.22259 53.17383,22.22259 20.63492,0 39.68372,-8.33372 53.1758,-22.22259 13.4921,-13.49204 22.2226,-32.53925 22.2226,-53.17415 0,-20.63489 -8.3337,-39.6821 -22.2226,-53.17415 C 219.68372,113.33477 200.63492,104.60424 180,104.60424 Z m 0,20.63373 c 15.07936,0 28.96998,5.95237 38.89062,15.87299 9.92063,9.92062 15.87308,23.81066 15.87308,38.89 0,15.07935 -5.95245,28.96745 -15.87308,38.88807 -9.92064,9.92062 -23.81126,15.87299 -38.89062,15.87299 -15.07937,0 -28.96803,-5.95237 -38.88867,-15.87299 -9.92063,-9.92062 -15.87305,-23.80872 -15.87305,-38.88807 0,-15.07934 5.95242,-28.96938 15.87305,-38.89 9.92064,-9.92062 23.8093,-15.87299 38.88867,-15.87299 z M 40.31836,169.68313 C 34.7628,169.68313 30,174.44541 30,180.00096 c 0,5.55555 4.36598,10.31784 10.31836,10.31784 h 30.55469 c 5.55555,0 10.31836,-4.76229 10.31836,-10.31784 0,-5.55555 -4.76281,-10.31783 -10.31836,-10.31783 z m 248.80864,0 c -5.5556,0 -10.3164,4.76228 -10.3164,10.31783 0,5.55555 4.7608,10.31784 10.3164,10.31784 h 30.5566 c 5.5555,0 10.3164,-4.76229 10.3164,-10.31784 0,-5.55555 -4.7609,-10.31783 -10.3164,-10.31783 z m -186.35747,77.18323 c -2.62897,0 -5.30884,0.99207 -7.29297,2.97619 l -21.82422,21.82538 c -3.96825,3.96825 -3.96825,10.31586 0,14.28411 3.96826,3.96825 10.3169,3.96825 14.28516,0 l 21.82617,-21.82538 c 3.96826,-3.96825 3.96826,-10.31586 0,-14.28411 -1.78571,-1.98412 -4.36517,-2.97619 -6.99414,-2.97619 z m 154.36527,0 c -2.629,0 -5.3089,0.99207 -7.293,2.97619 -3.9682,3.96825 -3.9682,10.31586 0,14.28411 l 21.8262,21.82538 c 3.9682,3.96825 10.3169,3.96825 14.2851,0 3.9683,-3.96825 3.9683,-10.31586 0,-14.28411 L 264.127,249.84255 c -1.7858,-1.98412 -4.3633,-2.97619 -6.9922,-2.97619 z M 180,278.80998 c -5.55556,0 -10.31641,4.7623 -10.31641,10.31785 v 30.55433 C 169.68359,325.2377 174.44444,330 180,330 c 5.55556,0 10.31836,-4.7623 10.31836,-10.31784 v -30.55433 c 0,-5.55555 -4.7628,-10.31785 -10.31836,-10.31785 z"
id="asset-light" />
<path
d="m 301.77064,197.87714 c -2.61891,-0.65746 -5.23771,0 -7.52921,1.64362 -8.5111,7.23195 -18.3317,13.149 -29.1344,17.09371 -10.148,3.9447 -21.27797,5.91705 -33.06269,5.91705 -26.51563,0 -50.73976,-10.84793 -68.08949,-28.27036 -17.34973,-17.42242 -28.15239,-41.74808 -28.15239,-68.37481 0,-11.17666 1.96412,-22.02458 5.23765,-31.886333 3.60089,-10.5192 8.83854,-20.05223 15.71296,-28.27036 2.94619,-3.61597 2.29148,-8.87557 -1.30941,-11.83409 -2.29148,-1.64363 -4.9103,-2.30108 -7.52913,-1.64363 -27.82504,7.56067 -52.049182,24.32565 -69.398922,46.67895 -16.69501,22.024583 -26.51561,49.308763 -26.51561,78.894023 0,35.83103 14.40354,68.37476 37.97299,92.04298 C 113.54243,293.5361 145.62306,308 181.63193,308 c 30.11651,0 57.94154,-10.51918 80.2016,-27.9416 22.5873,-17.75118 38.95501,-43.06294 45.82941,-71.99078 1.3094,-4.60216 -1.3094,-9.2043 -5.8923,-10.19048 z"
id="asset-dark" />
<path
d="M 150.57774,22 A 128.57775,127.71502 0 0 0 21.99999,149.71502 128.57775,127.71502 0 0 0 63.54408,243.55454 L 76.68713,230.49968 C 75.3697,229.30274 74.08006,228.07519 72.81818,226.81649 52.46049,206.51058 40.01845,178.5889 40.01845,147.8482 c 0,-25.38237 8.48366,-48.78924 22.9037,-67.68498 14.98553,-19.17771 35.90783,-33.56072 59.94122,-40.04734 0.56549,-0.14099 1.13208,-0.21193 1.69315,-0.21632 1.68322,-0.013 3.32626,0.56763 4.81068,1.62527 3.1102,2.53824 3.67479,7.05087 1.13008,10.15315 -5.93766,7.05067 -10.46054,15.22961 -13.57075,24.25448 -2.82745,8.46072 -4.52424,17.76805 -4.52424,27.35694 0,22.84403 9.33079,43.71277 24.31631,58.66012 1.49417,1.49038 3.06305,2.90682 4.67138,4.28145 L 245.02754,63.28877 A 128.57775,127.71502 0 0 0 150.57774,22 Z m 144.36942,11.61279 c -2.15773,-0.021 -4.32418,0.79183 -5.99373,2.44374 L 37.60134,284.7575 c -3.33908,3.30382 -3.39011,8.67435 -0.11575,12.04153 3.27436,3.36718 8.59736,3.41877 11.93645,0.11494 l 72.57611,-71.81046 c 3.32783,5.70247 7.33651,10.93409 11.91094,15.51419 13.55296,13.56972 32.68578,22.34863 53.41384,22.34863 20.72806,0 39.86285,-8.3798 53.41581,-22.34863 13.55296,-13.56973 22.32296,-32.72849 22.32296,-53.48217 0,-20.75369 -8.37138,-39.91064 -22.32296,-53.48036 -4.36766,-4.37305 -9.3271,-8.23065 -14.72241,-11.47241 l 74.75779,-73.96975 c 3.33908,-3.30382 3.39208,-8.67425 0.11772,-12.04143 -1.63718,-1.68365 -3.78696,-2.53814 -5.94468,-2.55879 z m -7.9694,43.9683 c -2.59102,0 -5.18174,0.99777 -7.17482,2.99332 l -21.92469,21.95102 c -3.98616,3.99109 -3.98616,10.37723 0,14.36833 3.58755,3.99109 10.36544,3.99109 14.3516,0 l 21.92273,-21.95102 c 3.98616,-3.9911 3.98616,-10.37724 0,-14.36833 -1.99309,-1.99555 -4.58382,-2.99332 -7.17482,-2.99332 z m -76.15666,59.63652 c 5.81954,2.6861 11.10077,6.33317 15.568,10.8059 9.96541,9.97773 15.94469,23.94585 15.94469,39.11202 0,15.16616 -5.97928,29.13609 -15.94469,39.11383 -9.96543,9.97773 -23.91874,15.96437 -39.06617,15.96437 -15.14743,0 -29.09877,-5.98664 -39.0642,-15.96437 -4.61867,-4.62438 -8.35947,-10.11823 -11.06535,-16.18071 z m 86.12135,39.54256 c -5.58062,0 -10.36297,4.78782 -10.36296,10.37536 0,5.58754 4.78234,10.37715 10.36296,10.37715 h 30.69456 c 5.5806,0 10.363,-4.78961 10.363,-10.37715 0,-5.58754 -4.7824,-10.37536 -10.363,-10.37536 z m -187.19858,77.6256 c -2.64084,0 -5.33281,0.99778 -7.32589,2.99332 l -21.92273,21.95102 c -3.98621,3.9911 -3.98621,10.37725 0,14.36834 3.98611,3.9911 10.36353,3.9911 14.34964,0 l 21.92469,-21.95102 c 3.98617,-3.99109 3.98617,-10.37724 0,-14.36834 -1.79377,-1.99554 -4.38487,-2.99332 -7.02571,-2.99332 z m 155.06199,0 c -2.64084,0 -5.33279,0.99778 -7.32589,2.99332 -3.98616,3.9911 -3.98616,10.37725 0,14.36834 l 21.9247,21.95102 c 3.98617,3.9911 10.36347,3.9911 14.34963,0 3.98616,-3.99109 3.98616,-10.37724 0,-14.36834 l -21.92469,-21.95102 c -1.79377,-1.99554 -4.38291,-2.99332 -7.02375,-2.99332 z m -77.48293,32.12951 c -5.58063,0 -10.36297,4.78782 -10.36297,10.37535 v 30.73213 c 0,5.58754 4.78234,10.37724 10.36297,10.37724 5.58064,0 10.36494,-4.7897 10.36494,-10.37724 v -30.73213 c 0,-5.58753 -4.7843,-10.37535 -10.36494,-10.37535 z"
id="asset-device" />
</defs>
<!-- #000 -->
<use xlink:href="#asset-dark" id="dark"/>
<use xlink:href="#asset-device" id="device"/>
<use xlink:href="#asset-light" id="light"/>
<!-- #fff -->
<use xlink:href="#asset-dark" id="invert-dark"/>
<use xlink:href="#asset-device" id="invert-device"/>
<use xlink:href="#asset-light" id="invert-light"/>
</svg>
